<svg width="4500" height="4500" xmlns="http://www.w3.org/2000/svg" fill="none">

 <g>
  <title>Layer 1</title>
  <g id="27b66d8e">
   <g id="fee9a5b5">
    <path fill="white" d="m2551.09668,6.50061c151.12735,156.16865 281.62206,330.20016 391.51391,522.09452c240.08883,435.07877 188.9985,821.98693 -153.33054,1160.75731c-70.94887,69.48126 -146.86982,131.3117 -227.76284,185.52415c-121.59261,-108.42491 -182.6271,-249.62029 -183.10346,-423.58612c1.90547,-134.82516 31.20202,-261.76965 87.83012,-380.89915c90.21195,-147.46707 138.8609,-310.56415 145.88731,-489.25839c-42.15846,132.46096 -102.6868,252.87106 -181.61482,361.19747c-76.33777,118.11157 -122.99194,249.4561 -139.93273,394.0336c-7.9196,84.38886 1.01228,166.4792 26.79563,246.271c17.95307,48.36762 38.79412,94.33821 62.52313,137.91176c-95.39244,-60.31998 -178.75662,-136.92668 -250.09253,-229.85293c-87.65148,-132.98634 -103.55022,-276.38173 -47.63667,-430.15335c39.41935,-103.56516 92.0281,-197.67352 157.79648,-282.39075c56.56855,-62.38865 113.1371,-124.77731 169.70565,-187.16596c100.00724,-138.83117 148.15005,-297.5282 144.39866,-476.12393c-0.50614,-36.15258 -1.48865,-72.27233 -2.97729,-108.35924z" clip-rule="evenodd" fill-rule="evenodd" id="c403a242"/>
   </g>
   <g id="5d1d71bc">
    <path fill="white" d="m4266.01691,886.50899c107.21229,272.14587 179.17344,555.62021 215.85367,850.45585c73.50934,693.59764 -184.02642,1163.67973 -772.60729,1410.31193c-207.45771,82.64855 -420.84023,137.91176 -640.11779,165.82247c0.50614,178.43155 35.7275,348.09585 105.69387,508.96007c34.06022,76.80372 72.28865,150.68502 114.62574,221.6439c-146.51254,-18.28973 -258.16099,-96.53823 -334.94536,-234.77835c-66.12566,-134.46397 -107.80775,-277.85936 -125.04627,-430.15335c-46.86258,-348.22719 27.56972,-660.17046 223.2969,-935.8298c96.61313,-124.08775 210.22659,-224.23795 340.89994,-300.45062c154.90851,-72.76487 298.8308,-164.70604 431.70735,-275.82352c103.72886,-88.09935 190.54669,-192.61676 260.51306,-313.58507c1.99479,-2.20002 1.99479,-4.36721 0,-6.56723c-149.81734,154.06714 -316.03955,282.68627 -498.69642,385.82457c-31.76771,15.33447 -63.50564,30.63611 -95.27335,45.97059c-91.93878,31.98239 -183.22255,65.90212 -273.91087,101.79201c-115.19143,59.17071 -210.97092,145.07004 -287.30868,257.76365c-85.18033,130.9505 -151.66326,273.2623 -199.47857,426.86973c-29.47519,95.3233 -55.28831,191.63167 -77.40959,288.95797c-47.30917,-186.44357 -123.73626,-356.07503 -229.25149,-508.96007c-30.15997,-40.94666 -63.41632,-78.70821 -99.73928,-113.28466c-75.77208,26.40025 -152.19917,51.55273 -229.25149,75.52311c-701.03319,204.50344 -1281.099,0.39403 -1740.22721,-612.39389c-137.90817,-187.16596 -254.02256,-389.63356 -348.34317,-607.46847c69.8175,60.68117 146.75073,108.29357 230.74013,142.83718c197.21583,75.35893 399.67169,100.54424 607.36758,75.52311c139.75409,-15.49865 276.70952,-46.13477 410.8663,-91.94117c193.9408,-24.10172 385.47,-9.88368 574.61737,42.68697c148.00119,42.45712 276.53089,121.78922 385.55932,238.06197c81.10144,95.71733 135.70497,207.36018 163.75106,334.92856c-98.78655,-108.98313 -214.3948,-189.43165 -346.85453,-241.34558c-171.99816,-65.01554 -348.6409,-89.11727 -529.95799,-72.23949c-226.21465,28.00922 -452.48885,28.00922 -678.82259,0c-111.82709,-13.59416 -219.99211,-42.06309 -324.52483,-85.37395c76.15913,54.57365 158.5408,93.97701 247.11524,118.21008c168.69337,45.05117 339.88766,66.39466 513.58288,64.03046c296.68715,-12.93744 582.00105,43.4422 855.97147,169.10609c120.40169,57.29905 225.08328,138.83117 314.10431,244.62919c20.0074,28.07489 39.3598,56.54382 58.0572,85.37395c73.98571,-262.75474 225.8276,-448.27889 455.52569,-556.57246c88.69353,-41.01233 180.98958,-66.19764 276.88816,-75.52311c195.22104,-36.57945 382.79044,-100.0517 562.7082,-190.44957c132.96586,-66.46033 248.57411,-158.92689 346.85453,-277.46533c72.43752,-94.14119 117.60304,-202.50043 135.46679,-325.07772z" clip-rule="evenodd" fill-rule="evenodd" id="959a11ec"/>
   </g>
   <g id="cd44205a">
    <path fill="white" d="m2184.88976,2571.00263c191.94602,153.87012 317.49843,358.53774 376.62745,614.03569c25.75358,111.31449 44.59984,224.07377 56.56855,338.21217c4.73389,76.86939 11.67098,153.47609 20.84104,229.85293c43.94483,292.50428 194.29808,481.31204 451.05975,566.4233c120.10396,33.49286 242.17294,49.91092 366.20692,49.2542c-184.0562,66.19764 -372.6081,106.71743 -565.68549,121.49369c-131.35813,10.11353 -258.36941,-10.67174 -381.09338,-62.38865c-156.42692,-81.6963 -258.13122,-214.68264 -305.17244,-398.95902c-18.01262,-69.87529 -29.92179,-141.03119 -35.7275,-213.43487c0.02977,-255.92482 -32.72044,-506.59586 -98.25064,-751.94745c-32.36316,-119.52353 -81.96485,-228.96636 -148.8646,-328.36133c-18.96535,-26.40025 -40.81867,-49.38554 -65.50043,-68.95588c-1.99479,-2.20002 -1.99479,-4.36721 0,-6.56723c100.42406,33.03315 179.82844,97.62182 238.18336,193.73319c56.30059,96.83376 98.96519,200.82579 128.02356,311.94327c49.12532,194.75111 81.87553,392.8515 98.25064,594.33401c20.7815,168.38369 80.32734,317.22988 178.63752,446.57141c127.04105,139.78342 280.37159,203.81388 459.99162,192.09138c-155.0276,-50.17361 -272.63063,-152.52384 -352.80911,-307.01785c-64.01178,-132.42813 -100.72179,-273.6235 -110.15981,-423.58612c-0.80387,-138.73266 -10.71825,-276.64442 -29.77292,-413.73528c-20.27536,-133.87292 -58.98016,-260.85024 -116.11439,-380.89915c-52.90648,-102.51441 -107.98638,-203.22283 -165.23971,-302.09243z" clip-rule="evenodd" fill-rule="evenodd" id="861f645f"/>
   </g>
  </g>
 </g>
</svg>