<svg width="4500" height="4500" xmlns="http://www.w3.org/2000/svg" fill="none">

 <g>
  <title>Layer 1</title>
  <g id="27b66d8e">
   <g id="fee9a5b5">
    <path fill="#f88221" d="m2550.69719,0.50006c151.26206,156.63277 281.87309,331.18148 391.8629,523.64613c240.30284,436.37178 189.16697,824.42979 -153.46722,1164.20697c-71.01211,69.68775 -147.00073,131.70194 -227.96587,186.07551c-121.70099,-108.74714 -182.78989,-250.36213 -183.26668,-424.84498c1.90717,-135.22585 31.22983,-262.54761 87.90841,-382.03114c90.29236,-147.90533 138.98468,-311.48712 146.01735,-490.71242c-42.19604,132.85462 -102.77834,253.62257 -181.7767,362.27091c-76.40581,118.46259 -123.10157,250.19746 -140.05746,395.20463c-7.92666,84.63966 1.01318,166.97396 26.81951,247.00289c17.96907,48.51137 38.8287,94.61858 62.57887,138.32162c-95.47747,-60.49924 -178.91596,-137.33361 -250.31546,-230.53603c-87.72961,-133.38156 -103.64252,-277.20311 -47.67914,-431.43172c39.45448,-103.87295 92.11013,-198.26099 157.93714,-283.22998c56.61897,-62.57407 113.23795,-125.14813 169.85692,-187.7222c100.09639,-139.24376 148.28211,-298.41243 144.52738,-477.53893c-0.50659,-36.26002 -1.48997,-72.48712 -2.97995,-108.68127z" clip-rule="evenodd" fill-rule="evenodd" id="c403a242"/>
   </g>
   <g id="5d1d71bc">
    <path fill="#f88221" d="m4267.14607,883.12373c107.30785,272.95466 179.33315,557.27146 216.04608,852.98333c73.57487,695.65895 -184.19046,1167.13807 -773.29598,1414.50324c-207.64264,82.89417 -421.21536,138.32162 -640.68838,166.31528c0.50659,178.96183 35.75935,349.13036 105.78808,510.47265c34.09058,77.03197 72.35309,151.13284 114.72792,222.3026c-146.64314,-18.34408 -258.39112,-96.82513 -335.24392,-235.47609c-66.1846,-134.86358 -107.90384,-278.68513 -125.15773,-431.43172c-46.90435,-349.26209 27.5943,-662.13242 223.49595,-938.611c96.69925,-124.45652 210.41399,-224.90437 341.20381,-301.34353c155.04659,-72.98112 299.09718,-165.19554 432.09217,-276.64324c103.82132,-88.36117 190.71654,-193.1892 260.74527,-314.51702c1.99656,-2.20656 1.99656,-4.38018 0,-6.58674c-149.95088,154.52501 -316.32127,283.52639 -499.14095,386.9712c-31.79602,15.38005 -63.56225,30.72716 -95.35827,46.10721c-92.02073,32.07744 -183.38588,66.09797 -274.15503,102.09453c-115.29411,59.34656 -211.15897,145.50117 -287.56479,258.5297c-85.25625,131.33967 -151.79845,274.07441 -199.65638,428.13835c-29.50147,95.60659 -55.3376,192.20119 -77.4786,289.81673c-47.35134,-186.99766 -123.84655,-357.13325 -229.45584,-510.47265c-30.18685,-41.06835 -63.47285,-78.94212 -99.82819,-113.62133c-75.83963,26.47871 -152.33484,51.70594 -229.45584,75.74755c-701.65808,205.1112 -1282.24095,0.3952 -1741.77842,-614.21386c-138.0311,-187.7222 -254.24899,-390.79151 -348.65368,-609.2738c69.87973,60.86151 146.88154,108.61541 230.94581,143.26168c197.39162,75.58289 400.02795,100.84305 607.90898,75.74755c139.87866,-15.54472 276.95618,-46.27188 411.23254,-92.21441c194.11368,-24.17335 385.81361,-9.91305 575.12957,42.81383c148.13311,42.5833 276.77738,122.15116 385.903,238.76946c81.17373,96.00179 135.82594,207.97644 163.89703,335.92394c-98.87461,-109.30701 -214.58591,-189.99463 -347.16371,-242.06284c-172.15148,-65.20876 -348.95167,-89.38211 -530.43038,-72.45418c-226.4163,28.09246 -452.89219,28.09246 -679.42768,0c-111.92677,-13.63456 -220.18821,-42.18809 -324.81411,-85.62767c76.22702,54.73584 158.68212,94.2563 247.33552,118.56139c168.84374,45.18506 340.19063,66.59198 514.04068,64.22075c296.95162,-12.97589 582.51984,43.57131 856.73447,169.60865c120.50902,57.46934 225.28392,139.24376 314.3843,245.35621c20.02524,28.15833 39.39489,56.71186 58.10895,85.62767c74.05166,-263.53562 226.0289,-449.61113 455.93173,-558.22654c88.77259,-41.13422 181.15092,-66.39438 277.13498,-75.74755c195.39506,-36.68816 383.13165,-100.34904 563.20979,-191.01557c133.08439,-66.65785 248.79569,-159.3992 347.16371,-278.28993c72.50209,-94.42097 117.70787,-203.10225 135.58754,-326.04382z" clip-rule="evenodd" fill-rule="evenodd" id="959a11ec"/>
   </g>
   <g id="cd44205a">
    <path fill="#f88221" d="m2184.16383,2572.62353c192.11712,154.32741 317.78144,359.60328 376.96317,615.86055c25.77653,111.64531 44.63959,224.7397 56.61897,339.21731c4.73811,77.09784 11.68139,153.9322 20.85962,230.53603c43.984,293.37357 194.47127,482.74246 451.46182,568.10666c120.21102,33.59239 242.38881,50.05925 366.53335,49.40058c-184.22026,66.39438 -372.94024,107.03459 -566.18974,121.85476c-131.47522,10.14359 -258.59971,-10.70346 -381.43308,-62.57407c-156.56636,-81.93909 -258.36132,-215.32066 -305.44446,-400.14469c-18.02867,-70.08295 -29.94846,-141.45032 -35.75935,-214.06917c0.0298,-256.68541 -32.74961,-508.10142 -98.33822,-754.18217c-32.39201,-119.87874 -82.03791,-229.64682 -148.9973,-329.33719c-18.98226,-26.47871 -40.85506,-49.53231 -65.55881,-69.16081c-1.99656,-2.20656 -1.99656,-4.38018 0,-6.58674c100.51358,33.13132 179.98874,97.91195 238.39568,194.30894c56.35078,97.12154 99.0534,201.42263 128.13768,312.87033c49.16911,195.32989 81.94851,394.01902 98.33822,596.10032c20.80002,168.88411 80.39894,318.17266 178.79676,447.89858c127.15429,140.19884 280.62151,204.41959 460.40165,192.66226c-155.16579,-50.32272 -272.87365,-152.97713 -353.1236,-307.93027c-64.06884,-132.82169 -100.81157,-274.43668 -110.258,-424.84498c-0.80459,-139.14496 -10.72781,-277.46658 -29.79946,-414.96486c-20.29343,-134.27077 -59.03273,-261.62546 -116.21789,-382.03114c-52.95364,-102.81907 -108.08264,-203.82679 -165.387,-302.99022z" clip-rule="evenodd" fill-rule="evenodd" id="861f645f"/>
   </g>
  </g>
 </g>
</svg>